<svg xmlns="http://www.w3.org/2000/svg" width="1024" height="1024" viewBox="0 0 1024 1024">
  <defs>
    <linearGradient id="bg" x1="0" y1="0" x2="0" y2="1">
      <stop offset="0" stop-color="#262628"/>
      <stop offset="1" stop-color="#09090a"/>
    </linearGradient>
    <radialGradient id="glow" cx="0.5" cy="0.38" r="0.72">
      <stop offset="0" stop-color="#ff9a2f" stop-opacity="0.18"/>
      <stop offset="1" stop-color="#ff9a2f" stop-opacity="0"/>
    </radialGradient>
    <linearGradient id="paper" x1="0.2" y1="0.08" x2="0.8" y2="0.92">
      <stop offset="0" stop-color="#fdf7ef"/>
      <stop offset="1" stop-color="#f3ede2"/>
    </linearGradient>
    <linearGradient id="fold" x1="0" y1="0" x2="1" y2="1">
      <stop offset="0" stop-color="#fff3dd"/>
      <stop offset="1" stop-color="#e8ddd0"/>
    </linearGradient>
    <linearGradient id="hash" x1="0.35" y1="0.18" x2="0.65" y2="0.82">
      <stop offset="0" stop-color="#ffc36b"/>
      <stop offset="1" stop-color="#f58012"/>
    </linearGradient>
  </defs>
  <rect x="32" y="32" width="960" height="960" rx="224" fill="url(#bg)"/>
  <rect x="32" y="32" width="960" height="960" rx="224" fill="url(#glow)"/>
  <rect x="34" y="34" width="956" height="956" rx="222" fill="none" stroke="#fff" stroke-opacity="0.08" stroke-width="3"/>
  <g filter="url(#shadow)">
    <path d="M336 248h246l110 110v344c0 46-37 83-83 83H336c-46 0-83-37-83-83V331c0-46 37-83 83-83z" fill="url(#paper)"/>
    <path d="M582 248v110h110" fill="url(#fold)"/>
    <path d="M582 248l110 110h-110z" fill="#e7ddcf" opacity="0.92"/>
  </g>
  <g stroke="url(#hash)" stroke-width="78" stroke-linecap="round">
    <line x1="470" y1="656" x2="470" y2="428"/>
    <line x1="606" y1="656" x2="606" y2="428"/>
    <line x1="430" y1="490" x2="646" y2="490"/>
    <line x1="430" y1="578" x2="646" y2="578"/>
  </g>
  <path d="M318 660h388" stroke="#d9cfbf" stroke-width="13" stroke-linecap="round" opacity="0.9"/>
  <path d="M318 706h270" stroke="#d9cfbf" stroke-width="13" stroke-linecap="round" opacity="0.75"/>
  <defs>
    <filter id="shadow" x="0" y="0" width="1024" height="1024" filterUnits="userSpaceOnUse">
      <feDropShadow dx="0" dy="18" stdDeviation="20" flood-color="#000" flood-opacity="0.35"/>
    </filter>
  </defs>
</svg>
