<svg xmlns="http://www.w3.org/2000/svg" width="1024" height="1024" viewBox="0 0 1024 1024"><defs><linearGradient id="g" x1="0" y1="0" x2="0" y2="1"><stop offset="0" stop-color="#FFC268"/><stop offset="1" stop-color="#EF6C0A"/></linearGradient><radialGradient id="hl" cx=".3" cy=".22" r=".9"><stop offset="0" stop-color="#fff" stop-opacity=".30"/><stop offset=".5" stop-color="#fff" stop-opacity="0"/></radialGradient><filter id="ds" x="-30%" y="-30%" width="160%" height="160%"><feDropShadow dx="0" dy="14" stdDeviation="20" flood-color="#7a3500" flood-opacity=".30"/></filter><linearGradient id="o" gradientUnits="userSpaceOnUse" x1="512" y1="360" x2="512" y2="560"><stop offset="0" stop-color="#FBA033"/><stop offset="1" stop-color="#EE6C09"/></linearGradient></defs><rect x="32" y="32" width="960" height="960" rx="224" fill="url(#g)"/><rect x="32" y="32" width="960" height="960" rx="224" fill="url(#hl)"/><g filter="url(#ds)"><path d="M300 286 a40 40 0 0 1 40-40 L612 246 L740 374 L740 738 a40 40 0 0 1 -40 40 L340 778 a40 40 0 0 1 -40-40 Z" fill="#ffffff"/><path d="M612 246 L612 374 L740 374 Z" fill="#E8E2D4"/></g><g stroke="url(#o)" stroke-width="46" stroke-linecap="round"><line x1="474" y1="362" x2="474" y2="556"/><line x1="566" y1="362" x2="566" y2="556"/><line x1="430" y1="424" x2="612" y2="424"/><line x1="430" y1="494" x2="612" y2="494"/></g><g stroke="#D9D2C4" stroke-width="22" stroke-linecap="round"><line x1="386" y1="636" x2="654" y2="636"/><line x1="386" y1="688" x2="600" y2="688"/></g></svg>