<svg xmlns="http://www.w3.org/2000/svg" width="1024" height="1024" viewBox="0 0 1024 1024">
  <defs>
    <linearGradient id="bg" x1="0" y1="0" x2="0" y2="1">
      <stop offset="0" stop-color="#272728"/>
      <stop offset="1" stop-color="#09090a"/>
    </linearGradient>
    <radialGradient id="glow" cx="0.5" cy="0.38" r="0.72">
      <stop offset="0" stop-color="#ff9a2f" stop-opacity="0.20"/>
      <stop offset="1" stop-color="#ff9a2f" stop-opacity="0"/>
    </radialGradient>
    <linearGradient id="plate" x1="0.1" y1="0" x2="0.9" y2="1">
      <stop offset="0" stop-color="#1d1b18"/>
      <stop offset="1" stop-color="#0d0d0e"/>
    </linearGradient>
    <linearGradient id="accent" x1="0.25" y1="0.08" x2="0.8" y2="0.9">
      <stop offset="0" stop-color="#ffd07a"/>
      <stop offset="1" stop-color="#f57c12"/>
    </linearGradient>
    <filter id="shadow" x="0" y="0" width="1024" height="1024" filterUnits="userSpaceOnUse">
      <feDropShadow dx="0" dy="18" stdDeviation="18" flood-color="#000" flood-opacity="0.35"/>
    </filter>
  </defs>
  <rect x="32" y="32" width="960" height="960" rx="224" fill="url(#bg)"/>
  <rect x="32" y="32" width="960" height="960" rx="224" fill="url(#glow)"/>
  <rect x="34" y="34" width="956" height="956" rx="222" fill="none" stroke="#fff" stroke-opacity="0.08" stroke-width="3"/>
  <g filter="url(#shadow)">
    <rect x="246" y="226" width="532" height="572" rx="110" fill="url(#plate)"/>
    <path d="M600 226v108c0 31 25 56 56 56h122z" fill="#ece5d9"/>
    <path d="M600 226l178 164H600z" fill="#e0d7ca" opacity="0.95"/>
  </g>
  <text x="512" y="562" text-anchor="middle" font-family="Avenir Next, Helvetica Neue, Arial, sans-serif" font-size="174" font-weight="800" letter-spacing="-8" fill="url(#accent)">S</text>
  <text x="512" y="672" text-anchor="middle" font-family="Avenir Next, Helvetica Neue, Arial, sans-serif" font-size="94" font-weight="700" letter-spacing="2" fill="#ff8e1a">#</text>
  <path d="M356 668h312" stroke="#d9cfbf" stroke-width="14" stroke-linecap="round" opacity="0.88"/>
</svg>
