<svg xmlns="http://www.w3.org/2000/svg" width="1024" height="1024" viewBox="0 0 1024 1024"><defs><linearGradient id="bg" x1="0" y1="0" x2=".25" y2="1"><stop offset="0" stop-color="#242426"/><stop offset="1" stop-color="#070708"/></linearGradient><radialGradient id="glow" cx=".5" cy=".42" r=".66"><stop offset="0" stop-color="#FB9233" stop-opacity=".20"/><stop offset="1" stop-color="#FB9233" stop-opacity="0"/></radialGradient><linearGradient id="o" gradientUnits="userSpaceOnUse" x1="512" y1="290" x2="512" y2="720"><stop offset="0" stop-color="#FFC76E"/><stop offset="1" stop-color="#F0760E"/></linearGradient></defs><rect x="32" y="32" width="960" height="960" rx="224" fill="url(#bg)"/><rect x="32" y="32" width="960" height="960" rx="224" fill="url(#glow)"/><rect x="33.5" y="33.5" width="957" height="957" rx="223" fill="none" stroke="#fff" stroke-opacity=".09" stroke-width="3"/><path d="M306 300 a40 40 0 0 1 40-40 L616 260 L744 388 L744 724 a40 40 0 0 1 -40 40 L346 764 a40 40 0 0 1 -40-40 Z" fill="#1b1b1d" stroke="#3a3a3d" stroke-width="4"/><path d="M616 260 L616 388 L744 388 Z" fill="url(#o)"/><g stroke="url(#o)" stroke-width="44" stroke-linecap="round"><line x1="470" y1="352" x2="470" y2="548"/><line x1="566" y1="352" x2="566" y2="548"/><line x1="426" y1="414" x2="612" y2="414"/><line x1="426" y1="486" x2="612" y2="486"/></g><g stroke="#55555a" stroke-width="22" stroke-linecap="round"><line x1="392" y1="640" x2="660" y2="640"/><line x1="392" y1="690" x2="600" y2="690"/></g></svg>