<svg xmlns="http://www.w3.org/2000/svg" width="1024" height="1024" viewBox="0 0 1024 1024"><defs><linearGradient id="g" x1="0" y1="0" x2="0" y2="1"><stop offset="0" stop-color="#FFC268"/><stop offset=".55" stop-color="#FB9233"/><stop offset="1" stop-color="#EF6C0A"/></linearGradient><radialGradient id="hl" cx=".3" cy=".22" r=".9"><stop offset="0" stop-color="#fff" stop-opacity=".28"/><stop offset=".5" stop-color="#fff" stop-opacity="0"/></radialGradient><filter id="ds" x="-30%" y="-30%" width="160%" height="160%"><feDropShadow dx="0" dy="9" stdDeviation="13" flood-color="#7a3500" flood-opacity=".26"/></filter></defs><rect x="32" y="32" width="960" height="960" rx="224" fill="url(#g)"/><rect x="32" y="32" width="960" height="960" rx="224" fill="url(#hl)"/><rect x="360" y="360" width="92" height="400" rx="46.0" fill="#fff" filter="url(#ds)"/><path d="M 630 296 Q 646.64 383.36 734 400 Q 646.64 416.64 630 504 Q 613.36 416.64 526 400 Q 613.36 383.36 630 296 Z" fill="#fff"/><path d="M 740 550 Q 749.6 600.4 800 610 Q 749.6 619.6 740 670 Q 730.4 619.6 680 610 Q 730.4 600.4 740 550 Z" fill="#fff"/><path d="M 600 598 Q 606.72 633.28 642 640 Q 606.72 646.72 600 682 Q 593.28 646.72 558 640 Q 593.28 633.28 600 598 Z" fill="#fff"/></svg>